<?xml version="1.0" standalone="no"?>
<!DOCTYPE svg PUBLIC "-//W3C//DTD SVG 20010904//EN"
 "http://www.w3.org/TR/2001/REC-SVG-20010904/DTD/svg10.dtd">
<svg version="1.0" xmlns="http://www.w3.org/2000/svg"
 width="500.000000pt" height="500.000000pt" viewBox="0 0 500.000000 500.000000"
 preserveAspectRatio="xMidYMid meet">
<metadata>
Created by potrace 1.15, written by Peter Selinger 2001-2017
</metadata>
<g transform="translate(0.000000,500.000000) scale(0.100000,-0.100000)"
fill="#000000" stroke="none">
<path d="M3636 3107 c-38 -39 -161 -177 -229 -255 -15 -18 -31 -32 -35 -32
-13 0 -46 40 -76 90 -38 65 -81 114 -94 106 -17 -10 9 -83 68 -186 l52 -91
-18 -42 c-10 -22 -53 -94 -96 -159 -89 -136 -105 -163 -89 -154 7 5 9 1 5 -8
-3 -9 -11 -13 -17 -9 -5 3 -7 1 -4 -4 9 -14 -12 -73 -25 -73 -5 0 -6 5 -2 11
4 6 -13 0 -37 -14 -51 -30 -293 -87 -369 -87 -59 0 -90 24 -90 68 0 63 148
236 276 322 53 36 93 77 94 97 0 9 -32 12 -127 10 -145 -2 -160 6 -87 49 83
49 168 74 248 74 63 0 75 3 94 23 28 29 28 60 1 131 -19 50 -26 57 -60 68 -46
13 -148 -1 -233 -32 -143 -54 -216 -169 -172 -273 12 -31 61 -80 87 -89 21 -7
-7 -42 -74 -94 -74 -56 -103 -94 -128 -167 -24 -67 -24 -124 -1 -169 l19 -35
-81 -8 c-45 -4 -106 -8 -136 -9 l-55 -1 -3 38 c-2 20 4 74 12 120 13 70 51
339 71 502 10 83 8 144 -5 160 -35 43 -119 -19 -144 -105 -12 -46 -99 -487
-151 -774 -9 -50 -21 -86 -34 -100 -28 -30 -28 -94 0 -130 11 -14 27 -26 35
-26 28 0 79 32 149 95 89 79 194 140 290 171 l76 24 47 -27 c38 -23 58 -28
107 -27 71 1 234 39 288 65 l37 19 0 -50 c0 -48 1 -50 29 -50 47 0 93 40 143
125 25 44 72 116 104 160 32 44 59 86 60 94 3 19 35 62 56 74 28 19 49 -2 89
-90 53 -117 60 -130 78 -150 9 -10 39 -46 66 -81 28 -34 58 -65 67 -68 17 -5
78 32 78 48 0 4 -21 27 -46 50 -59 55 -104 121 -188 280 -42 79 -65 135 -62
145 8 23 149 169 249 256 66 58 77 73 77 100 0 60 -74 137 -131 137 -7 0 -31
-19 -53 -43z"/>
<path d="M2060 2956 c0 -16 -22 -23 -110 -31 -36 -4 -87 -10 -115 -15 -139
-24 -262 -32 -284 -21 -20 11 -23 10 -28 -8 -5 -18 -13 -21 -57 -20 l-51 1 45
13 45 12 -77 4 c-77 4 -78 4 -83 -22 -13 -57 17 -118 77 -155 45 -28 46 -43
15 -129 -17 -45 -27 -60 -42 -61 -11 -1 -34 -4 -51 -8 -24 -5 -33 -3 -37 8 -9
22 -24 20 -32 -4 -4 -12 -14 -19 -23 -18 -14 3 -17 -5 -15 -45 1 -37 7 -53 27
-71 13 -13 28 -40 31 -59 7 -37 -9 -255 -26 -340 -11 -58 -4 -71 48 -88 33
-10 117 -8 129 4 3 3 10 36 15 73 10 74 90 368 114 421 16 37 70 67 225 126
90 35 170 90 170 116 0 14 -105 14 -130 1 -21 -11 -102 -23 -170 -24 -53 -1
-59 12 -40 80 14 48 22 52 147 75 32 6 67 16 78 24 33 20 145 46 162 37 27
-15 80 19 94 60 11 33 10 40 -6 58 -21 23 -45 26 -45 6z"/>
<path d="M2448 1813 c-55 -63 -12 -149 65 -129 24 6 47 43 47 75 0 55 -78 92
-112 54z"/>
<path d="M2708 1813 c-55 -63 -12 -149 65 -129 24 6 47 43 47 75 0 55 -78 92
-112 54z"/>
</g>
</svg>
